<svg width="290" height="290" viewBox="0 0 165 165" fill="none" xmlns="http://www.w3.org/2000/svg">
<g clip-path="url(#clip0_301_2)">
<g filter="url(#filter0_d_301_2)">
    <path xmlns="http://www.w3.org/2000/svg" d="M45.8171,106.5815A20.7182,20.7182,0,0,1,23.58,98.3389a19.1739,19.1739,0,0,1-3.2766-14.5025,18.1886,18.1886,0,0,1,.6233-2.4357l.4912-1.4978,1.3363.9815a33.6443,33.6443,0,0,0,10.203,5.0978l.9694.2941-.0893.9675a5.8474,5.8474,0,0,0,1.052,3.8781,6.2389,6.2389,0,0,0,6.6952,2.485,5.7449,5.7449,0,0,0,1.6021-.7041L69.27,76.281a5.4306,5.4306,0,0,0,2.4506-3.631,5.7948,5.7948,0,0,0-.9875-4.3712,6.2436,6.2436,0,0,0-6.6978-2.4864,5.7427,5.7427,0,0,0-1.6.7036l-9.9532,6.3449a19.0329,19.0329,0,0,1-5.2965,2.3259,20.7181,20.7181,0,0,1-22.2368-8.2427,19.1725,19.1725,0,0,1-3.2766-14.5024,17.9885,17.9885,0,0,1,8.13-12.0513L55.8833,23.7472a19.0038,19.0038,0,0,1,5.3-2.3287A20.7182,20.7182,0,0,1,83.42,29.6611a19.1739,19.1739,0,0,1,3.2766,14.5025,18.4,18.4,0,0,1-.6233,2.4357l-.4912,1.4978-1.3356-.98a33.6175,33.6175,0,0,0-10.2037-5.1l-.9694-.2942.0893-.9675a5.8588,5.8588,0,0,0-1.052-3.878,6.2389,6.2389,0,0,0-6.6952-2.485,5.7449,5.7449,0,0,0-1.6021.7041L37.73,51.719a5.4218,5.4218,0,0,0-2.4487,3.63,5.7862,5.7862,0,0,0,.9856,4.3717,6.2437,6.2437,0,0,0,6.6978,2.4864,5.7652,5.7652,0,0,0,1.602-.7041l9.9519-6.3425a18.978,18.978,0,0,1,5.2959-2.3278,20.7181,20.7181,0,0,1,22.2368,8.2427,19.1725,19.1725,0,0,1,3.2766,14.5024,17.9977,17.9977,0,0,1-8.13,12.0532L51.1167,104.2528a19.0038,19.0038,0,0,1-5.3,2.3287" style="fill:#FCC72B;" transform="translate(40,8) scale(0.9)"/>
<path d="M82.9866 153.343C82.0254 153.344 81.0735 153.156 80.1855 152.788C79.2975 152.42 78.4909 151.88 77.8122 151.2L43.6658 117.056C42.2998 115.683 41.5341 113.824 41.5366 111.887C41.5392 109.95 42.3098 108.092 43.6796 106.723C45.0493 105.353 46.9064 104.582 48.8435 104.579C50.7807 104.577 52.6399 105.342 54.0134 106.708L82.9866 135.678L146.105 72.5626C147.481 71.2088 149.336 70.4536 151.266 70.4615C153.197 70.4693 155.046 71.2396 156.41 72.6045C157.775 73.9695 158.546 75.8184 158.554 77.7487C158.561 79.679 157.806 81.5342 156.452 82.9101L88.1597 151.2C87.4811 151.881 86.6747 152.42 85.7869 152.788C84.8992 153.156 83.9475 153.344 82.9866 153.343Z" fill="#729B1B"/>
<path d="M82.9572 153.343C83.9184 153.344 84.8703 153.156 85.7583 152.788C86.6463 152.42 87.4528 151.88 88.1316 151.2L122.278 117.056C123.644 115.683 124.41 113.824 124.407 111.887C124.405 109.95 123.634 108.092 122.264 106.723C120.894 105.353 119.037 104.582 117.1 104.579C115.163 104.577 113.304 105.342 111.93 106.708L82.9572 135.678L19.8389 72.5626C18.4629 71.2088 16.6077 70.4536 14.6775 70.4615C12.7472 70.4693 10.8982 71.2396 9.53331 72.6045C8.16839 73.9695 7.39811 75.8184 7.39025 77.7487C7.38239 79.679 8.13759 81.5342 9.49135 82.9101L77.784 151.2C78.4627 151.881 79.2691 152.42 80.1568 152.788C81.0446 153.156 81.9963 153.344 82.9572 153.343Z" fill="#729B1B" fill-opacity="0.5"/>
</g>
</g>
<defs>
<filter id="filter0_d_301_2" x="1.3902" y="10.4431" width="167.163" height="153.9" filterUnits="userSpaceOnUse" color-interpolation-filters="sRGB">
<feFlood flood-opacity="0" result="BackgroundImageFix"/>
<feColorMatrix in="SourceAlpha" type="matrix" values="0 0 0 0 0 0 0 0 0 0 0 0 0 0 0 0 0 0 127 0" result="hardAlpha"/>
<feOffset dx="2" dy="3"/>
<feGaussianBlur stdDeviation="4"/>
<feComposite in2="hardAlpha" operator="out"/>
<feColorMatrix type="matrix" values="0 0 0 0 0.108333 0 0 0 0 0.108333 0 0 0 0 0.108333 0 0 0 0.2 0"/>
<feBlend mode="normal" in2="BackgroundImageFix" result="effect1_dropShadow_301_2"/>
<feBlend mode="normal" in="SourceGraphic" in2="effect1_dropShadow_301_2" result="shape"/>
</filter>
<clipPath id="clip0_301_2">
<rect width="165" height="165" fill="white"/>
</clipPath>
</defs>
</svg>
